<svg xmlns="http://www.w3.org/2000/svg" xmlns:xlink="http://www.w3.org/1999/xlink" class="httpgd" width="1037.00" height="668.00" viewBox="0 0 829.60 534.40">
<defs>
  <style type='text/css'><![CDATA[
    .httpgd line, .httpgd polyline, .httpgd polygon, .httpgd path, .httpgd rect, .httpgd circle {
      fill: none;
      stroke: #000000;
      stroke-linecap: round;
      stroke-linejoin: round;
      stroke-miterlimit: 10.00;
    }
  ]]></style>
<clipPath id="c0"><rect x="0.00" y="0.00" width="829.60" height="534.40"/></clipPath>
<clipPath id="c1"><rect x="40.24" y="5.48" width="707.17" height="474.69"/></clipPath>
<clipPath id="c2"><rect x="0.00" y="0.00" width="829.60" height="534.40"/></clipPath>
</defs>
<rect width="100%" height="100%" style="stroke: none;fill: #FFFFFF;"/>
<g clip-path="url(#c0)">
<rect x="0.00" y="0.00" width="829.60" height="534.40" style="stroke-width: 1.07;stroke: #FFFFFF;fill: #FFFFFF;"/>
</g><g clip-path="url(#c1)">
<rect x="40.24" y="5.48" width="707.17" height="474.69" style="stroke-width: 1.07;stroke: none;fill: #EBEBEB;"/>
<polyline points="40.24,386.75 747.42,386.75" style="stroke-width: 0.53;stroke: #FFFFFF;stroke-linecap: butt;"/>
<polyline points="40.24,240.14 747.42,240.14" style="stroke-width: 0.53;stroke: #FFFFFF;stroke-linecap: butt;"/>
<polyline points="40.24,93.52 747.42,93.52" style="stroke-width: 0.53;stroke: #FFFFFF;stroke-linecap: butt;"/>
<polyline points="47.70,480.17 47.70,5.48" style="stroke-width: 0.53;stroke: #FFFFFF;stroke-linecap: butt;"/>
<polyline points="60.04,480.17 60.04,5.48" style="stroke-width: 0.53;stroke: #FFFFFF;stroke-linecap: butt;"/>
<polyline points="84.73,480.17 84.73,5.48" style="stroke-width: 0.53;stroke: #FFFFFF;stroke-linecap: butt;"/>
<polyline points="107.38,480.17 107.38,5.48" style="stroke-width: 0.53;stroke: #FFFFFF;stroke-linecap: butt;"/>
<polyline points="127.99,480.17 127.99,5.48" style="stroke-width: 0.53;stroke: #FFFFFF;stroke-linecap: butt;"/>
<polyline points="148.60,480.17 148.60,5.48" style="stroke-width: 0.53;stroke: #FFFFFF;stroke-linecap: butt;"/>
<polyline points="169.20,480.17 169.20,5.48" style="stroke-width: 0.53;stroke: #FFFFFF;stroke-linecap: butt;"/>
<polyline points="189.81,480.17 189.81,5.48" style="stroke-width: 0.53;stroke: #FFFFFF;stroke-linecap: butt;"/>
<polyline points="210.41,480.17 210.41,5.48" style="stroke-width: 0.53;stroke: #FFFFFF;stroke-linecap: butt;"/>
<polyline points="231.02,480.17 231.02,5.48" style="stroke-width: 0.53;stroke: #FFFFFF;stroke-linecap: butt;"/>
<polyline points="251.63,480.17 251.63,5.48" style="stroke-width: 0.53;stroke: #FFFFFF;stroke-linecap: butt;"/>
<polyline points="272.23,480.17 272.23,5.48" style="stroke-width: 0.53;stroke: #FFFFFF;stroke-linecap: butt;"/>
<polyline points="292.84,480.17 292.84,5.48" style="stroke-width: 0.53;stroke: #FFFFFF;stroke-linecap: butt;"/>
<polyline points="313.45,480.17 313.45,5.48" style="stroke-width: 0.53;stroke: #FFFFFF;stroke-linecap: butt;"/>
<polyline points="334.05,480.17 334.05,5.48" style="stroke-width: 0.53;stroke: #FFFFFF;stroke-linecap: butt;"/>
<polyline points="354.66,480.17 354.66,5.48" style="stroke-width: 0.53;stroke: #FFFFFF;stroke-linecap: butt;"/>
<polyline points="375.27,480.17 375.27,5.48" style="stroke-width: 0.53;stroke: #FFFFFF;stroke-linecap: butt;"/>
<polyline points="395.87,480.17 395.87,5.48" style="stroke-width: 0.53;stroke: #FFFFFF;stroke-linecap: butt;"/>
<polyline points="416.48,480.17 416.48,5.48" style="stroke-width: 0.53;stroke: #FFFFFF;stroke-linecap: butt;"/>
<polyline points="437.09,480.17 437.09,5.48" style="stroke-width: 0.53;stroke: #FFFFFF;stroke-linecap: butt;"/>
<polyline points="457.69,480.17 457.69,5.48" style="stroke-width: 0.53;stroke: #FFFFFF;stroke-linecap: butt;"/>
<polyline points="478.30,480.17 478.30,5.48" style="stroke-width: 0.53;stroke: #FFFFFF;stroke-linecap: butt;"/>
<polyline points="498.91,480.17 498.91,5.48" style="stroke-width: 0.53;stroke: #FFFFFF;stroke-linecap: butt;"/>
<polyline points="519.51,480.17 519.51,5.48" style="stroke-width: 0.53;stroke: #FFFFFF;stroke-linecap: butt;"/>
<polyline points="540.12,480.17 540.12,5.48" style="stroke-width: 0.53;stroke: #FFFFFF;stroke-linecap: butt;"/>
<polyline points="560.72,480.17 560.72,5.48" style="stroke-width: 0.53;stroke: #FFFFFF;stroke-linecap: butt;"/>
<polyline points="581.33,480.17 581.33,5.48" style="stroke-width: 0.53;stroke: #FFFFFF;stroke-linecap: butt;"/>
<polyline points="601.94,480.17 601.94,5.48" style="stroke-width: 0.53;stroke: #FFFFFF;stroke-linecap: butt;"/>
<polyline points="622.54,480.17 622.54,5.48" style="stroke-width: 0.53;stroke: #FFFFFF;stroke-linecap: butt;"/>
<polyline points="643.15,480.17 643.15,5.48" style="stroke-width: 0.53;stroke: #FFFFFF;stroke-linecap: butt;"/>
<polyline points="663.76,480.17 663.76,5.48" style="stroke-width: 0.53;stroke: #FFFFFF;stroke-linecap: butt;"/>
<polyline points="684.36,480.17 684.36,5.48" style="stroke-width: 0.53;stroke: #FFFFFF;stroke-linecap: butt;"/>
<polyline points="704.97,480.17 704.97,5.48" style="stroke-width: 0.53;stroke: #FFFFFF;stroke-linecap: butt;"/>
<polyline points="727.62,480.17 727.62,5.48" style="stroke-width: 0.53;stroke: #FFFFFF;stroke-linecap: butt;"/>
<polyline points="739.96,480.17 739.96,5.48" style="stroke-width: 0.53;stroke: #FFFFFF;stroke-linecap: butt;"/>
<polyline points="40.24,460.06 747.42,460.06" style="stroke-width: 1.07;stroke: #FFFFFF;stroke-linecap: butt;"/>
<polyline points="40.24,313.45 747.42,313.45" style="stroke-width: 1.07;stroke: #FFFFFF;stroke-linecap: butt;"/>
<polyline points="40.24,166.83 747.42,166.83" style="stroke-width: 1.07;stroke: #FFFFFF;stroke-linecap: butt;"/>
<polyline points="40.24,20.22 747.42,20.22" style="stroke-width: 1.07;stroke: #FFFFFF;stroke-linecap: butt;"/>
<polyline points="72.39,480.17 72.39,5.48" style="stroke-width: 1.07;stroke: #FFFFFF;stroke-linecap: butt;"/>
<polyline points="97.08,480.17 97.08,5.48" style="stroke-width: 1.07;stroke: #FFFFFF;stroke-linecap: butt;"/>
<polyline points="117.69,480.17 117.69,5.48" style="stroke-width: 1.07;stroke: #FFFFFF;stroke-linecap: butt;"/>
<polyline points="138.29,480.17 138.29,5.48" style="stroke-width: 1.07;stroke: #FFFFFF;stroke-linecap: butt;"/>
<polyline points="158.90,480.17 158.90,5.48" style="stroke-width: 1.07;stroke: #FFFFFF;stroke-linecap: butt;"/>
<polyline points="179.51,480.17 179.51,5.48" style="stroke-width: 1.07;stroke: #FFFFFF;stroke-linecap: butt;"/>
<polyline points="200.11,480.17 200.11,5.48" style="stroke-width: 1.07;stroke: #FFFFFF;stroke-linecap: butt;"/>
<polyline points="220.72,480.17 220.72,5.48" style="stroke-width: 1.07;stroke: #FFFFFF;stroke-linecap: butt;"/>
<polyline points="241.32,480.17 241.32,5.48" style="stroke-width: 1.07;stroke: #FFFFFF;stroke-linecap: butt;"/>
<polyline points="261.93,480.17 261.93,5.48" style="stroke-width: 1.07;stroke: #FFFFFF;stroke-linecap: butt;"/>
<polyline points="282.54,480.17 282.54,5.48" style="stroke-width: 1.07;stroke: #FFFFFF;stroke-linecap: butt;"/>
<polyline points="303.14,480.17 303.14,5.48" style="stroke-width: 1.07;stroke: #FFFFFF;stroke-linecap: butt;"/>
<polyline points="323.75,480.17 323.75,5.48" style="stroke-width: 1.07;stroke: #FFFFFF;stroke-linecap: butt;"/>
<polyline points="344.36,480.17 344.36,5.48" style="stroke-width: 1.07;stroke: #FFFFFF;stroke-linecap: butt;"/>
<polyline points="364.96,480.17 364.96,5.48" style="stroke-width: 1.07;stroke: #FFFFFF;stroke-linecap: butt;"/>
<polyline points="385.57,480.17 385.57,5.48" style="stroke-width: 1.07;stroke: #FFFFFF;stroke-linecap: butt;"/>
<polyline points="406.18,480.17 406.18,5.48" style="stroke-width: 1.07;stroke: #FFFFFF;stroke-linecap: butt;"/>
<polyline points="426.78,480.17 426.78,5.48" style="stroke-width: 1.07;stroke: #FFFFFF;stroke-linecap: butt;"/>
<polyline points="447.39,480.17 447.39,5.48" style="stroke-width: 1.07;stroke: #FFFFFF;stroke-linecap: butt;"/>
<polyline points="468.00,480.17 468.00,5.48" style="stroke-width: 1.07;stroke: #FFFFFF;stroke-linecap: butt;"/>
<polyline points="488.60,480.17 488.60,5.48" style="stroke-width: 1.07;stroke: #FFFFFF;stroke-linecap: butt;"/>
<polyline points="509.21,480.17 509.21,5.48" style="stroke-width: 1.07;stroke: #FFFFFF;stroke-linecap: butt;"/>
<polyline points="529.82,480.17 529.82,5.48" style="stroke-width: 1.07;stroke: #FFFFFF;stroke-linecap: butt;"/>
<polyline points="550.42,480.17 550.42,5.48" style="stroke-width: 1.07;stroke: #FFFFFF;stroke-linecap: butt;"/>
<polyline points="571.03,480.17 571.03,5.48" style="stroke-width: 1.07;stroke: #FFFFFF;stroke-linecap: butt;"/>
<polyline points="591.63,480.17 591.63,5.48" style="stroke-width: 1.07;stroke: #FFFFFF;stroke-linecap: butt;"/>
<polyline points="612.24,480.17 612.24,5.48" style="stroke-width: 1.07;stroke: #FFFFFF;stroke-linecap: butt;"/>
<polyline points="632.85,480.17 632.85,5.48" style="stroke-width: 1.07;stroke: #FFFFFF;stroke-linecap: butt;"/>
<polyline points="653.45,480.17 653.45,5.48" style="stroke-width: 1.07;stroke: #FFFFFF;stroke-linecap: butt;"/>
<polyline points="674.06,480.17 674.06,5.48" style="stroke-width: 1.07;stroke: #FFFFFF;stroke-linecap: butt;"/>
<polyline points="694.67,480.17 694.67,5.48" style="stroke-width: 1.07;stroke: #FFFFFF;stroke-linecap: butt;"/>
<polyline points="715.27,480.17 715.27,5.48" style="stroke-width: 1.07;stroke: #FFFFFF;stroke-linecap: butt;"/>
<circle cx="97.08" cy="458.24" r="2.49" style="stroke-width: 0.71;fill: #000000;"/>
<circle cx="117.69" cy="457.87" r="2.49" style="stroke-width: 0.71;fill: #000000;"/>
<circle cx="138.29" cy="457.44" r="2.49" style="stroke-width: 0.71;fill: #000000;"/>
<circle cx="158.90" cy="456.91" r="2.49" style="stroke-width: 0.71;fill: #000000;"/>
<circle cx="179.51" cy="456.28" r="2.49" style="stroke-width: 0.71;fill: #000000;"/>
<circle cx="200.11" cy="455.52" r="2.49" style="stroke-width: 0.71;fill: #000000;"/>
<circle cx="220.72" cy="454.62" r="2.49" style="stroke-width: 0.71;fill: #000000;"/>
<circle cx="241.32" cy="453.53" r="2.49" style="stroke-width: 0.71;fill: #000000;"/>
<circle cx="261.93" cy="452.22" r="2.49" style="stroke-width: 0.71;fill: #000000;"/>
<circle cx="282.54" cy="450.65" r="2.49" style="stroke-width: 0.71;fill: #000000;"/>
<circle cx="303.14" cy="448.77" r="2.49" style="stroke-width: 0.71;fill: #000000;"/>
<circle cx="323.75" cy="446.51" r="2.49" style="stroke-width: 0.71;fill: #000000;"/>
<circle cx="344.36" cy="443.80" r="2.49" style="stroke-width: 0.71;fill: #000000;"/>
<circle cx="364.96" cy="440.55" r="2.49" style="stroke-width: 0.71;fill: #000000;"/>
<circle cx="385.57" cy="436.64" r="2.49" style="stroke-width: 0.71;fill: #000000;"/>
<circle cx="406.18" cy="431.96" r="2.49" style="stroke-width: 0.71;fill: #000000;"/>
<circle cx="426.78" cy="426.34" r="2.49" style="stroke-width: 0.71;fill: #000000;"/>
<circle cx="447.39" cy="419.59" r="2.49" style="stroke-width: 0.71;fill: #000000;"/>
<circle cx="468.00" cy="411.50" r="2.49" style="stroke-width: 0.71;fill: #000000;"/>
<circle cx="488.60" cy="401.79" r="2.49" style="stroke-width: 0.71;fill: #000000;"/>
<circle cx="509.21" cy="390.13" r="2.49" style="stroke-width: 0.71;fill: #000000;"/>
<circle cx="529.82" cy="376.14" r="2.49" style="stroke-width: 0.71;fill: #000000;"/>
<circle cx="550.42" cy="359.36" r="2.49" style="stroke-width: 0.71;fill: #000000;"/>
<circle cx="571.03" cy="339.22" r="2.49" style="stroke-width: 0.71;fill: #000000;"/>
<circle cx="591.63" cy="315.05" r="2.49" style="stroke-width: 0.71;fill: #000000;"/>
<circle cx="612.24" cy="286.05" r="2.49" style="stroke-width: 0.71;fill: #000000;"/>
<circle cx="632.85" cy="251.24" r="2.49" style="stroke-width: 0.71;fill: #000000;"/>
<circle cx="653.45" cy="209.48" r="2.49" style="stroke-width: 0.71;fill: #000000;"/>
<circle cx="674.06" cy="159.36" r="2.49" style="stroke-width: 0.71;fill: #000000;"/>
<circle cx="694.67" cy="99.22" r="2.49" style="stroke-width: 0.71;fill: #000000;"/>
<circle cx="715.27" cy="27.06" r="2.49" style="stroke-width: 0.71;fill: #000000;"/>
<polyline points="97.08,458.24 117.69,457.87 138.29,457.44 158.90,456.91 179.51,456.28 200.11,455.52 220.72,454.62 241.32,453.53 261.93,452.22 282.54,450.65 303.14,448.77 323.75,446.51 344.36,443.80 364.96,440.55 385.57,436.64 406.18,431.96 426.78,426.34 447.39,419.59 468.00,411.50 488.60,401.79 509.21,390.13 529.82,376.14 550.42,359.36 571.03,339.22 591.63,315.05 612.24,286.05 632.85,251.24 653.45,209.48 674.06,159.36 694.67,99.22 715.27,27.06" style="stroke-width: 1.07;stroke-linecap: butt;"/>
<line x1="40.24" y1="458.60" x2="747.42" y2="458.60" style="stroke-width: 1.07;stroke: #0000FF; stroke-dasharray: 5.69, 5.69;stroke-linecap: butt;"/>
<line x1="72.39" y1="480.17" x2="72.39" y2="5.48" style="stroke-width: 1.07;stroke: #FF0000; stroke-dasharray: 5.69, 5.69;stroke-linecap: butt;"/>
</g><g clip-path="url(#c2)">
<g><text x="35.31" y="463.27" text-anchor="end" style="font-family: Arimo;font-size: 8.80px;fill: #4D4D4D;" textLength="5.59px" lengthAdjust="spacingAndGlyphs">0</text></g>
<g><text x="35.31" y="316.65" text-anchor="end" style="font-family: Arimo;font-size: 8.80px;fill: #4D4D4D;" textLength="16.78px" lengthAdjust="spacingAndGlyphs">200</text></g>
<g><text x="35.31" y="170.04" text-anchor="end" style="font-family: Arimo;font-size: 8.80px;fill: #4D4D4D;" textLength="16.78px" lengthAdjust="spacingAndGlyphs">400</text></g>
<g><text x="35.31" y="23.42" text-anchor="end" style="font-family: Arimo;font-size: 8.80px;fill: #4D4D4D;" textLength="16.78px" lengthAdjust="spacingAndGlyphs">600</text></g>
<polyline points="37.50,460.06 40.24,460.06" style="stroke-width: 1.07;stroke: #333333;stroke-linecap: butt;"/>
<polyline points="37.50,313.45 40.24,313.45" style="stroke-width: 1.07;stroke: #333333;stroke-linecap: butt;"/>
<polyline points="37.50,166.83 40.24,166.83" style="stroke-width: 1.07;stroke: #333333;stroke-linecap: butt;"/>
<polyline points="37.50,20.22 40.24,20.22" style="stroke-width: 1.07;stroke: #333333;stroke-linecap: butt;"/>
<polyline points="72.39,482.91 72.39,480.17" style="stroke-width: 1.07;stroke: #333333;stroke-linecap: butt;"/>
<polyline points="97.08,482.91 97.08,480.17" style="stroke-width: 1.07;stroke: #333333;stroke-linecap: butt;"/>
<polyline points="117.69,482.91 117.69,480.17" style="stroke-width: 1.07;stroke: #333333;stroke-linecap: butt;"/>
<polyline points="138.29,482.91 138.29,480.17" style="stroke-width: 1.07;stroke: #333333;stroke-linecap: butt;"/>
<polyline points="158.90,482.91 158.90,480.17" style="stroke-width: 1.07;stroke: #333333;stroke-linecap: butt;"/>
<polyline points="179.51,482.91 179.51,480.17" style="stroke-width: 1.07;stroke: #333333;stroke-linecap: butt;"/>
<polyline points="200.11,482.91 200.11,480.17" style="stroke-width: 1.07;stroke: #333333;stroke-linecap: butt;"/>
<polyline points="220.72,482.91 220.72,480.17" style="stroke-width: 1.07;stroke: #333333;stroke-linecap: butt;"/>
<polyline points="241.32,482.91 241.32,480.17" style="stroke-width: 1.07;stroke: #333333;stroke-linecap: butt;"/>
<polyline points="261.93,482.91 261.93,480.17" style="stroke-width: 1.07;stroke: #333333;stroke-linecap: butt;"/>
<polyline points="282.54,482.91 282.54,480.17" style="stroke-width: 1.07;stroke: #333333;stroke-linecap: butt;"/>
<polyline points="303.14,482.91 303.14,480.17" style="stroke-width: 1.07;stroke: #333333;stroke-linecap: butt;"/>
<polyline points="323.75,482.91 323.75,480.17" style="stroke-width: 1.07;stroke: #333333;stroke-linecap: butt;"/>
<polyline points="344.36,482.91 344.36,480.17" style="stroke-width: 1.07;stroke: #333333;stroke-linecap: butt;"/>
<polyline points="364.96,482.91 364.96,480.17" style="stroke-width: 1.07;stroke: #333333;stroke-linecap: butt;"/>
<polyline points="385.57,482.91 385.57,480.17" style="stroke-width: 1.07;stroke: #333333;stroke-linecap: butt;"/>
<polyline points="406.18,482.91 406.18,480.17" style="stroke-width: 1.07;stroke: #333333;stroke-linecap: butt;"/>
<polyline points="426.78,482.91 426.78,480.17" style="stroke-width: 1.07;stroke: #333333;stroke-linecap: butt;"/>
<polyline points="447.39,482.91 447.39,480.17" style="stroke-width: 1.07;stroke: #333333;stroke-linecap: butt;"/>
<polyline points="468.00,482.91 468.00,480.17" style="stroke-width: 1.07;stroke: #333333;stroke-linecap: butt;"/>
<polyline points="488.60,482.91 488.60,480.17" style="stroke-width: 1.07;stroke: #333333;stroke-linecap: butt;"/>
<polyline points="509.21,482.91 509.21,480.17" style="stroke-width: 1.07;stroke: #333333;stroke-linecap: butt;"/>
<polyline points="529.82,482.91 529.82,480.17" style="stroke-width: 1.07;stroke: #333333;stroke-linecap: butt;"/>
<polyline points="550.42,482.91 550.42,480.17" style="stroke-width: 1.07;stroke: #333333;stroke-linecap: butt;"/>
<polyline points="571.03,482.91 571.03,480.17" style="stroke-width: 1.07;stroke: #333333;stroke-linecap: butt;"/>
<polyline points="591.63,482.91 591.63,480.17" style="stroke-width: 1.07;stroke: #333333;stroke-linecap: butt;"/>
<polyline points="612.24,482.91 612.24,480.17" style="stroke-width: 1.07;stroke: #333333;stroke-linecap: butt;"/>
<polyline points="632.85,482.91 632.85,480.17" style="stroke-width: 1.07;stroke: #333333;stroke-linecap: butt;"/>
<polyline points="653.45,482.91 653.45,480.17" style="stroke-width: 1.07;stroke: #333333;stroke-linecap: butt;"/>
<polyline points="674.06,482.91 674.06,480.17" style="stroke-width: 1.07;stroke: #333333;stroke-linecap: butt;"/>
<polyline points="694.67,482.91 694.67,480.17" style="stroke-width: 1.07;stroke: #333333;stroke-linecap: butt;"/>
<polyline points="715.27,482.91 715.27,480.17" style="stroke-width: 1.07;stroke: #333333;stroke-linecap: butt;"/>
<g><text transform="translate(78.80,500.49) rotate(-90.00)" text-anchor="middle" style="font-family: Arimo;font-size: 8.80px;fill: #4D4D4D;" textLength="30.77px" lengthAdjust="spacingAndGlyphs">3.8018</text></g>
<g><text transform="translate(103.49,500.49) rotate(-90.00)" text-anchor="middle" style="font-family: Arimo;font-size: 8.80px;fill: #4D4D4D;" textLength="5.59px" lengthAdjust="spacingAndGlyphs">5</text></g>
<g><text transform="translate(124.10,500.49) rotate(-90.00)" text-anchor="middle" style="font-family: Arimo;font-size: 8.80px;fill: #4D4D4D;" textLength="5.59px" lengthAdjust="spacingAndGlyphs">6</text></g>
<g><text transform="translate(144.71,500.49) rotate(-90.00)" text-anchor="middle" style="font-family: Arimo;font-size: 8.80px;fill: #4D4D4D;" textLength="5.59px" lengthAdjust="spacingAndGlyphs">7</text></g>
<g><text transform="translate(165.31,500.49) rotate(-90.00)" text-anchor="middle" style="font-family: Arimo;font-size: 8.80px;fill: #4D4D4D;" textLength="5.59px" lengthAdjust="spacingAndGlyphs">8</text></g>
<g><text transform="translate(185.92,500.49) rotate(-90.00)" text-anchor="middle" style="font-family: Arimo;font-size: 8.80px;fill: #4D4D4D;" textLength="5.59px" lengthAdjust="spacingAndGlyphs">9</text></g>
<g><text transform="translate(206.53,500.49) rotate(-90.00)" text-anchor="middle" style="font-family: Arimo;font-size: 8.80px;fill: #4D4D4D;" textLength="11.19px" lengthAdjust="spacingAndGlyphs">10</text></g>
<g><text transform="translate(227.13,500.49) rotate(-90.00)" text-anchor="middle" style="font-family: Arimo;font-size: 8.80px;fill: #4D4D4D;" textLength="11.19px" lengthAdjust="spacingAndGlyphs">11</text></g>
<g><text transform="translate(247.74,500.49) rotate(-90.00)" text-anchor="middle" style="font-family: Arimo;font-size: 8.80px;fill: #4D4D4D;" textLength="11.19px" lengthAdjust="spacingAndGlyphs">12</text></g>
<g><text transform="translate(268.35,500.49) rotate(-90.00)" text-anchor="middle" style="font-family: Arimo;font-size: 8.80px;fill: #4D4D4D;" textLength="11.19px" lengthAdjust="spacingAndGlyphs">13</text></g>
<g><text transform="translate(288.95,500.49) rotate(-90.00)" text-anchor="middle" style="font-family: Arimo;font-size: 8.80px;fill: #4D4D4D;" textLength="11.19px" lengthAdjust="spacingAndGlyphs">14</text></g>
<g><text transform="translate(309.56,500.49) rotate(-90.00)" text-anchor="middle" style="font-family: Arimo;font-size: 8.80px;fill: #4D4D4D;" textLength="11.19px" lengthAdjust="spacingAndGlyphs">15</text></g>
<g><text transform="translate(330.17,500.49) rotate(-90.00)" text-anchor="middle" style="font-family: Arimo;font-size: 8.80px;fill: #4D4D4D;" textLength="11.19px" lengthAdjust="spacingAndGlyphs">16</text></g>
<g><text transform="translate(350.77,500.49) rotate(-90.00)" text-anchor="middle" style="font-family: Arimo;font-size: 8.80px;fill: #4D4D4D;" textLength="11.19px" lengthAdjust="spacingAndGlyphs">17</text></g>
<g><text transform="translate(371.38,500.49) rotate(-90.00)" text-anchor="middle" style="font-family: Arimo;font-size: 8.80px;fill: #4D4D4D;" textLength="11.19px" lengthAdjust="spacingAndGlyphs">18</text></g>
<g><text transform="translate(391.99,500.49) rotate(-90.00)" text-anchor="middle" style="font-family: Arimo;font-size: 8.80px;fill: #4D4D4D;" textLength="11.19px" lengthAdjust="spacingAndGlyphs">19</text></g>
<g><text transform="translate(412.59,500.49) rotate(-90.00)" text-anchor="middle" style="font-family: Arimo;font-size: 8.80px;fill: #4D4D4D;" textLength="11.19px" lengthAdjust="spacingAndGlyphs">20</text></g>
<g><text transform="translate(433.20,500.49) rotate(-90.00)" text-anchor="middle" style="font-family: Arimo;font-size: 8.80px;fill: #4D4D4D;" textLength="11.19px" lengthAdjust="spacingAndGlyphs">21</text></g>
<g><text transform="translate(453.80,500.49) rotate(-90.00)" text-anchor="middle" style="font-family: Arimo;font-size: 8.80px;fill: #4D4D4D;" textLength="11.19px" lengthAdjust="spacingAndGlyphs">22</text></g>
<g><text transform="translate(474.41,500.49) rotate(-90.00)" text-anchor="middle" style="font-family: Arimo;font-size: 8.80px;fill: #4D4D4D;" textLength="11.19px" lengthAdjust="spacingAndGlyphs">23</text></g>
<g><text transform="translate(495.02,500.49) rotate(-90.00)" text-anchor="middle" style="font-family: Arimo;font-size: 8.80px;fill: #4D4D4D;" textLength="11.19px" lengthAdjust="spacingAndGlyphs">24</text></g>
<g><text transform="translate(515.62,500.49) rotate(-90.00)" text-anchor="middle" style="font-family: Arimo;font-size: 8.80px;fill: #4D4D4D;" textLength="11.19px" lengthAdjust="spacingAndGlyphs">25</text></g>
<g><text transform="translate(536.23,500.49) rotate(-90.00)" text-anchor="middle" style="font-family: Arimo;font-size: 8.80px;fill: #4D4D4D;" textLength="11.19px" lengthAdjust="spacingAndGlyphs">26</text></g>
<g><text transform="translate(556.84,500.49) rotate(-90.00)" text-anchor="middle" style="font-family: Arimo;font-size: 8.80px;fill: #4D4D4D;" textLength="11.19px" lengthAdjust="spacingAndGlyphs">27</text></g>
<g><text transform="translate(577.44,500.49) rotate(-90.00)" text-anchor="middle" style="font-family: Arimo;font-size: 8.80px;fill: #4D4D4D;" textLength="11.19px" lengthAdjust="spacingAndGlyphs">28</text></g>
<g><text transform="translate(598.05,500.49) rotate(-90.00)" text-anchor="middle" style="font-family: Arimo;font-size: 8.80px;fill: #4D4D4D;" textLength="11.19px" lengthAdjust="spacingAndGlyphs">29</text></g>
<g><text transform="translate(618.66,500.49) rotate(-90.00)" text-anchor="middle" style="font-family: Arimo;font-size: 8.80px;fill: #4D4D4D;" textLength="11.19px" lengthAdjust="spacingAndGlyphs">30</text></g>
<g><text transform="translate(639.26,500.49) rotate(-90.00)" text-anchor="middle" style="font-family: Arimo;font-size: 8.80px;fill: #4D4D4D;" textLength="11.19px" lengthAdjust="spacingAndGlyphs">31</text></g>
<g><text transform="translate(659.87,500.49) rotate(-90.00)" text-anchor="middle" style="font-family: Arimo;font-size: 8.80px;fill: #4D4D4D;" textLength="11.19px" lengthAdjust="spacingAndGlyphs">32</text></g>
<g><text transform="translate(680.48,500.49) rotate(-90.00)" text-anchor="middle" style="font-family: Arimo;font-size: 8.80px;fill: #4D4D4D;" textLength="11.19px" lengthAdjust="spacingAndGlyphs">33</text></g>
<g><text transform="translate(701.08,500.49) rotate(-90.00)" text-anchor="middle" style="font-family: Arimo;font-size: 8.80px;fill: #4D4D4D;" textLength="11.19px" lengthAdjust="spacingAndGlyphs">34</text></g>
<g><text transform="translate(721.69,500.49) rotate(-90.00)" text-anchor="middle" style="font-family: Arimo;font-size: 8.80px;fill: #4D4D4D;" textLength="11.19px" lengthAdjust="spacingAndGlyphs">35</text></g>
<g><text x="393.83" y="526.63" text-anchor="middle" style="font-family: Arimo;font-size: 11.00px;" textLength="6.97px" lengthAdjust="spacingAndGlyphs">n</text></g>
<g><text transform="translate(13.50,242.83) rotate(-90.00)" text-anchor="middle" style="font-family: Arimo;font-size: 11.00px;" textLength="6.51px" lengthAdjust="spacingAndGlyphs">y</text></g>
<rect x="758.38" y="212.17" width="65.74" height="61.31" style="stroke-width: 1.07;stroke: none;fill: #FFFFFF;"/>
<g><text x="763.86" y="226.82" style="font-family: Arimo;font-size: 11.00px;" textLength="46.67px" lengthAdjust="spacingAndGlyphs">Leyenda</text></g>
<rect x="763.86" y="233.44" width="17.28" height="17.28" style="stroke-width: 1.07;stroke: none;fill: #F2F2F2;"/>
<line x1="765.58" y1="242.08" x2="779.41" y2="242.08" style="stroke-width: 1.07;stroke: #0000FF; stroke-dasharray: 5.69, 5.69;stroke-linecap: butt;"/>
<line x1="772.50" y1="250.72" x2="772.50" y2="233.44" style="stroke-width: 1.07;stroke: #0000FF; stroke-dasharray: 5.69, 5.69;stroke-linecap: butt;"/>
<rect x="763.86" y="250.72" width="17.28" height="17.28" style="stroke-width: 1.07;stroke: none;fill: #F2F2F2;"/>
<line x1="765.58" y1="259.36" x2="779.41" y2="259.36" style="stroke-width: 1.07;stroke: #FF0000; stroke-dasharray: 5.69, 5.69;stroke-linecap: butt;"/>
<line x1="772.50" y1="268.00" x2="772.50" y2="250.72" style="stroke-width: 1.07;stroke: #FF0000; stroke-dasharray: 5.69, 5.69;stroke-linecap: butt;"/>
<g><text x="786.62" y="245.29" style="font-family: Arimo;font-size: 8.80px;" textLength="6.02px" lengthAdjust="spacingAndGlyphs">A</text></g>
<g><text x="786.62" y="262.57" style="font-family: Arimo;font-size: 8.80px;" textLength="32.03px" lengthAdjust="spacingAndGlyphs">log_a A</text></g>
</g>
</svg>